<mxfile host="Electron" agent="Mozilla/5.0 (X11; Linux x86_64) AppleWebKit/537.36 (KHTML, like Gecko) draw.io/27.0.2 Chrome/134.0.6998.205 Electron/35.3.0 Safari/537.36" version="27.0.2">
  <diagram name="페이지-1" id="cUej8mfnC2c1u7qZgtwX">
    <mxGraphModel dx="1114" dy="1204" grid="1" gridSize="10" guides="1" tooltips="1" connect="1" arrows="1" fold="1" page="1" pageScale="1" pageWidth="1654" pageHeight="1169" math="0" shadow="0">
      <root>
        <mxCell id="0" />
        <mxCell id="1" parent="0" />
        <mxCell id="HtLjNqq3REYxK-kQZzj4-4" value="" style="edgeStyle=orthogonalEdgeStyle;rounded=0;orthogonalLoop=1;jettySize=auto;html=1;" parent="1" source="HtLjNqq3REYxK-kQZzj4-1" target="HtLjNqq3REYxK-kQZzj4-3" edge="1">
          <mxGeometry relative="1" as="geometry" />
        </mxCell>
        <mxCell id="HtLjNqq3REYxK-kQZzj4-1" value="" style="strokeWidth=2;html=1;shape=mxgraph.flowchart.start_2;whiteSpace=wrap;fillColor=#000000;" parent="1" vertex="1">
          <mxGeometry x="740" y="120" width="40" height="40" as="geometry" />
        </mxCell>
        <mxCell id="HtLjNqq3REYxK-kQZzj4-6" value="" style="edgeStyle=orthogonalEdgeStyle;rounded=0;orthogonalLoop=1;jettySize=auto;html=1;" parent="1" source="HtLjNqq3REYxK-kQZzj4-3" target="HtLjNqq3REYxK-kQZzj4-5" edge="1">
          <mxGeometry relative="1" as="geometry" />
        </mxCell>
        <mxCell id="HtLjNqq3REYxK-kQZzj4-12" value="ACK_MISSION_ASSIGNED" style="edgeLabel;html=1;align=center;verticalAlign=middle;resizable=0;points=[];rotation=90;" parent="HtLjNqq3REYxK-kQZzj4-6" vertex="1" connectable="0">
          <mxGeometry x="-0.625" y="-2" relative="1" as="geometry">
            <mxPoint x="-8" y="49" as="offset" />
          </mxGeometry>
        </mxCell>
        <mxCell id="HtLjNqq3REYxK-kQZzj4-38" style="edgeStyle=orthogonalEdgeStyle;rounded=0;orthogonalLoop=1;jettySize=auto;html=1;entryX=1;entryY=0.75;entryDx=0;entryDy=0;strokeColor=#009900;" parent="1" source="HtLjNqq3REYxK-kQZzj4-3" target="HtLjNqq3REYxK-kQZzj4-14" edge="1">
          <mxGeometry relative="1" as="geometry">
            <Array as="points">
              <mxPoint x="610" y="270" />
              <mxPoint x="610" y="270" />
            </Array>
          </mxGeometry>
        </mxCell>
        <mxCell id="HtLjNqq3REYxK-kQZzj4-39" value="ACK_START_CHARGING" style="edgeLabel;html=1;align=center;verticalAlign=middle;resizable=0;points=[];fontColor=#00CC00;" parent="HtLjNqq3REYxK-kQZzj4-38" vertex="1" connectable="0">
          <mxGeometry x="-0.3123" y="-1" relative="1" as="geometry">
            <mxPoint x="-38" y="11" as="offset" />
          </mxGeometry>
        </mxCell>
        <mxCell id="HtLjNqq3REYxK-kQZzj4-3" value="IDLE" style="whiteSpace=wrap;html=1;strokeWidth=2;" parent="1" vertex="1">
          <mxGeometry x="680" y="240" width="160" height="40" as="geometry" />
        </mxCell>
        <mxCell id="HtLjNqq3REYxK-kQZzj4-41" style="edgeStyle=orthogonalEdgeStyle;rounded=0;orthogonalLoop=1;jettySize=auto;html=1;entryX=0.5;entryY=0;entryDx=0;entryDy=0;" parent="1" source="HtLjNqq3REYxK-kQZzj4-5" target="HtLjNqq3REYxK-kQZzj4-7" edge="1">
          <mxGeometry relative="1" as="geometry" />
        </mxCell>
        <mxCell id="HtLjNqq3REYxK-kQZzj4-42" value="ACK_RUN" style="edgeLabel;html=1;align=center;verticalAlign=middle;resizable=0;points=[];rotation=90;" parent="HtLjNqq3REYxK-kQZzj4-41" vertex="1" connectable="0">
          <mxGeometry x="-0.6125" y="2" relative="1" as="geometry">
            <mxPoint x="-12" y="49" as="offset" />
          </mxGeometry>
        </mxCell>
        <mxCell id="HtLjNqq3REYxK-kQZzj4-57" style="edgeStyle=orthogonalEdgeStyle;rounded=0;orthogonalLoop=1;jettySize=auto;html=1;entryX=1;entryY=0.75;entryDx=0;entryDy=0;fillColor=#dae8fc;strokeColor=#0000FF;" parent="1" source="HtLjNqq3REYxK-kQZzj4-5" target="HtLjNqq3REYxK-kQZzj4-3" edge="1">
          <mxGeometry relative="1" as="geometry">
            <Array as="points">
              <mxPoint x="920" y="460" />
              <mxPoint x="920" y="270" />
            </Array>
          </mxGeometry>
        </mxCell>
        <mxCell id="HtLjNqq3REYxK-kQZzj4-5" value="ASSIGNED" style="whiteSpace=wrap;html=1;strokeWidth=2;" parent="1" vertex="1">
          <mxGeometry x="680" y="440" width="160" height="40" as="geometry" />
        </mxCell>
        <mxCell id="HtLjNqq3REYxK-kQZzj4-43" style="edgeStyle=orthogonalEdgeStyle;rounded=0;orthogonalLoop=1;jettySize=auto;html=1;entryX=0.5;entryY=0;entryDx=0;entryDy=0;" parent="1" source="HtLjNqq3REYxK-kQZzj4-7" target="HtLjNqq3REYxK-kQZzj4-9" edge="1">
          <mxGeometry relative="1" as="geometry" />
        </mxCell>
        <mxCell id="HtLjNqq3REYxK-kQZzj4-44" value="ARRIVED" style="edgeLabel;html=1;align=center;verticalAlign=middle;resizable=0;points=[];rotation=90;" parent="HtLjNqq3REYxK-kQZzj4-43" vertex="1" connectable="0">
          <mxGeometry x="-0.6375" y="-1" relative="1" as="geometry">
            <mxPoint x="-9" y="41" as="offset" />
          </mxGeometry>
        </mxCell>
        <mxCell id="HtLjNqq3REYxK-kQZzj4-56" style="edgeStyle=orthogonalEdgeStyle;rounded=0;orthogonalLoop=1;jettySize=auto;html=1;entryX=1;entryY=0.75;entryDx=0;entryDy=0;fillColor=#dae8fc;strokeColor=#0000FF;exitX=1;exitY=0.25;exitDx=0;exitDy=0;" parent="1" source="HtLjNqq3REYxK-kQZzj4-7" target="HtLjNqq3REYxK-kQZzj4-3" edge="1">
          <mxGeometry relative="1" as="geometry">
            <Array as="points">
              <mxPoint x="920" y="650" />
              <mxPoint x="920" y="270" />
            </Array>
          </mxGeometry>
        </mxCell>
        <mxCell id="HtLjNqq3REYxK-kQZzj4-72" style="edgeStyle=orthogonalEdgeStyle;rounded=0;orthogonalLoop=1;jettySize=auto;html=1;entryX=0.5;entryY=1;entryDx=0;entryDy=0;strokeColor=#FF0000;" parent="1" source="HtLjNqq3REYxK-kQZzj4-7" target="HtLjNqq3REYxK-kQZzj4-68" edge="1">
          <mxGeometry relative="1" as="geometry">
            <Array as="points">
              <mxPoint x="880" y="660" />
              <mxPoint x="880" y="760" />
              <mxPoint x="1320" y="760" />
            </Array>
          </mxGeometry>
        </mxCell>
        <mxCell id="HtLjNqq3REYxK-kQZzj4-7" value="MOVING" style="whiteSpace=wrap;html=1;strokeWidth=2;" parent="1" vertex="1">
          <mxGeometry x="680" y="640" width="160" height="40" as="geometry" />
        </mxCell>
        <mxCell id="HtLjNqq3REYxK-kQZzj4-45" style="edgeStyle=orthogonalEdgeStyle;rounded=0;orthogonalLoop=1;jettySize=auto;html=1;entryX=0.5;entryY=0;entryDx=0;entryDy=0;" parent="1" source="HtLjNqq3REYxK-kQZzj4-9" target="HtLjNqq3REYxK-kQZzj4-20" edge="1">
          <mxGeometry relative="1" as="geometry">
            <Array as="points">
              <mxPoint x="760" y="920" />
              <mxPoint x="640" y="920" />
            </Array>
          </mxGeometry>
        </mxCell>
        <mxCell id="HtLjNqq3REYxK-kQZzj4-47" value="START_LOADING" style="edgeLabel;html=1;align=center;verticalAlign=middle;resizable=0;points=[];rotation=90;" parent="HtLjNqq3REYxK-kQZzj4-45" vertex="1" connectable="0">
          <mxGeometry x="0.77" y="5" relative="1" as="geometry">
            <mxPoint x="-15" y="-38" as="offset" />
          </mxGeometry>
        </mxCell>
        <mxCell id="HtLjNqq3REYxK-kQZzj4-46" style="edgeStyle=orthogonalEdgeStyle;rounded=0;orthogonalLoop=1;jettySize=auto;html=1;entryX=0.5;entryY=0;entryDx=0;entryDy=0;" parent="1" source="HtLjNqq3REYxK-kQZzj4-9" target="HtLjNqq3REYxK-kQZzj4-22" edge="1">
          <mxGeometry relative="1" as="geometry">
            <Array as="points">
              <mxPoint x="760" y="920" />
              <mxPoint x="880" y="920" />
            </Array>
          </mxGeometry>
        </mxCell>
        <mxCell id="HtLjNqq3REYxK-kQZzj4-48" value="START_UNLOADING" style="edgeLabel;html=1;align=center;verticalAlign=middle;resizable=0;points=[];rotation=90;" parent="HtLjNqq3REYxK-kQZzj4-46" vertex="1" connectable="0">
          <mxGeometry x="0.765" y="4" relative="1" as="geometry">
            <mxPoint x="6" y="-37" as="offset" />
          </mxGeometry>
        </mxCell>
        <mxCell id="HtLjNqq3REYxK-kQZzj4-53" style="edgeStyle=orthogonalEdgeStyle;rounded=0;orthogonalLoop=1;jettySize=auto;html=1;entryX=0;entryY=0.5;entryDx=0;entryDy=0;" parent="1" source="HtLjNqq3REYxK-kQZzj4-9" target="HtLjNqq3REYxK-kQZzj4-7" edge="1">
          <mxGeometry relative="1" as="geometry">
            <Array as="points">
              <mxPoint x="600" y="860" />
              <mxPoint x="600" y="660" />
            </Array>
          </mxGeometry>
        </mxCell>
        <mxCell id="HtLjNqq3REYxK-kQZzj4-54" value="ACK_GATE_X_OPENED" style="edgeLabel;html=1;align=center;verticalAlign=middle;resizable=0;points=[];rotation=90;" parent="HtLjNqq3REYxK-kQZzj4-53" vertex="1" connectable="0">
          <mxGeometry x="-0.6849" y="1" relative="1" as="geometry">
            <mxPoint x="-33" y="-101" as="offset" />
          </mxGeometry>
        </mxCell>
        <mxCell id="HtLjNqq3REYxK-kQZzj4-55" style="edgeStyle=orthogonalEdgeStyle;rounded=0;orthogonalLoop=1;jettySize=auto;html=1;entryX=1;entryY=0.75;entryDx=0;entryDy=0;fillColor=#dae8fc;strokeColor=#0000FF;exitX=1;exitY=0.25;exitDx=0;exitDy=0;" parent="1" source="HtLjNqq3REYxK-kQZzj4-9" target="HtLjNqq3REYxK-kQZzj4-3" edge="1">
          <mxGeometry relative="1" as="geometry">
            <Array as="points">
              <mxPoint x="920" y="850" />
              <mxPoint x="920" y="270" />
            </Array>
          </mxGeometry>
        </mxCell>
        <mxCell id="HtLjNqq3REYxK-kQZzj4-59" value="ACK_MISSION_CANCELED" style="edgeLabel;html=1;align=center;verticalAlign=middle;resizable=0;points=[];fontColor=#0000FF;rotation=90;" parent="HtLjNqq3REYxK-kQZzj4-55" vertex="1" connectable="0">
          <mxGeometry x="0.5099" y="1" relative="1" as="geometry">
            <mxPoint x="-9" y="-4" as="offset" />
          </mxGeometry>
        </mxCell>
        <mxCell id="HtLjNqq3REYxK-kQZzj4-71" style="edgeStyle=orthogonalEdgeStyle;rounded=0;orthogonalLoop=1;jettySize=auto;html=1;entryX=0.5;entryY=1;entryDx=0;entryDy=0;exitX=1;exitY=0.75;exitDx=0;exitDy=0;strokeColor=#FF0000;" parent="1" source="HtLjNqq3REYxK-kQZzj4-9" target="HtLjNqq3REYxK-kQZzj4-68" edge="1">
          <mxGeometry relative="1" as="geometry" />
        </mxCell>
        <mxCell id="HtLjNqq3REYxK-kQZzj4-9" value="WAITING" style="whiteSpace=wrap;html=1;strokeWidth=2;" parent="1" vertex="1">
          <mxGeometry x="680" y="840" width="160" height="40" as="geometry" />
        </mxCell>
        <mxCell id="HtLjNqq3REYxK-kQZzj4-37" style="edgeStyle=orthogonalEdgeStyle;rounded=0;orthogonalLoop=1;jettySize=auto;html=1;entryX=0;entryY=0.25;entryDx=0;entryDy=0;strokeColor=#009900;" parent="1" source="HtLjNqq3REYxK-kQZzj4-14" target="HtLjNqq3REYxK-kQZzj4-3" edge="1">
          <mxGeometry relative="1" as="geometry">
            <Array as="points">
              <mxPoint x="500" y="250" />
              <mxPoint x="500" y="250" />
            </Array>
          </mxGeometry>
        </mxCell>
        <mxCell id="HtLjNqq3REYxK-kQZzj4-40" value="FINISH_CHARGING" style="edgeLabel;html=1;align=center;verticalAlign=middle;resizable=0;points=[];fontColor=#00CC00;" parent="HtLjNqq3REYxK-kQZzj4-37" vertex="1" connectable="0">
          <mxGeometry x="-0.0603" y="1" relative="1" as="geometry">
            <mxPoint y="-9" as="offset" />
          </mxGeometry>
        </mxCell>
        <mxCell id="HtLjNqq3REYxK-kQZzj4-14" value="START_CHARGING" style="whiteSpace=wrap;html=1;strokeWidth=2;fillColor=#d5e8d4;strokeColor=#82b366;" parent="1" vertex="1">
          <mxGeometry x="280" y="240" width="160" height="40" as="geometry" />
        </mxCell>
        <mxCell id="HtLjNqq3REYxK-kQZzj4-49" style="edgeStyle=orthogonalEdgeStyle;rounded=0;orthogonalLoop=1;jettySize=auto;html=1;entryX=0;entryY=0.5;entryDx=0;entryDy=0;" parent="1" source="HtLjNqq3REYxK-kQZzj4-20" target="HtLjNqq3REYxK-kQZzj4-7" edge="1">
          <mxGeometry relative="1" as="geometry">
            <Array as="points">
              <mxPoint x="480" y="1060" />
              <mxPoint x="480" y="660" />
            </Array>
          </mxGeometry>
        </mxCell>
        <mxCell id="HtLjNqq3REYxK-kQZzj4-50" value="FINISH_LOADING" style="edgeLabel;html=1;align=center;verticalAlign=middle;resizable=0;points=[];rotation=90;" parent="HtLjNqq3REYxK-kQZzj4-49" vertex="1" connectable="0">
          <mxGeometry x="-0.6543" y="4" relative="1" as="geometry">
            <mxPoint x="14" y="-52" as="offset" />
          </mxGeometry>
        </mxCell>
        <mxCell id="HtLjNqq3REYxK-kQZzj4-70" style="edgeStyle=orthogonalEdgeStyle;rounded=0;orthogonalLoop=1;jettySize=auto;html=1;entryX=0.5;entryY=1;entryDx=0;entryDy=0;strokeColor=#FF0000;" parent="1" source="HtLjNqq3REYxK-kQZzj4-20" target="HtLjNqq3REYxK-kQZzj4-68" edge="1">
          <mxGeometry relative="1" as="geometry">
            <Array as="points">
              <mxPoint x="640" y="1120" />
              <mxPoint x="1320" y="1120" />
            </Array>
          </mxGeometry>
        </mxCell>
        <mxCell id="HtLjNqq3REYxK-kQZzj4-20" value="LOADING" style="whiteSpace=wrap;html=1;strokeWidth=2;" parent="1" vertex="1">
          <mxGeometry x="560" y="1040" width="160" height="40" as="geometry" />
        </mxCell>
        <mxCell id="HtLjNqq3REYxK-kQZzj4-62" value="" style="edgeStyle=orthogonalEdgeStyle;rounded=0;orthogonalLoop=1;jettySize=auto;html=1;" parent="1" source="HtLjNqq3REYxK-kQZzj4-22" target="HtLjNqq3REYxK-kQZzj4-61" edge="1">
          <mxGeometry relative="1" as="geometry">
            <Array as="points">
              <mxPoint x="1080" y="1060" />
            </Array>
          </mxGeometry>
        </mxCell>
        <mxCell id="HtLjNqq3REYxK-kQZzj4-65" value="FINISH_UNLOADING" style="edgeLabel;html=1;align=center;verticalAlign=middle;resizable=0;points=[];rotation=90;" parent="HtLjNqq3REYxK-kQZzj4-62" vertex="1" connectable="0">
          <mxGeometry x="-0.3739" y="-1" relative="1" as="geometry">
            <mxPoint x="8" y="-33" as="offset" />
          </mxGeometry>
        </mxCell>
        <mxCell id="HtLjNqq3REYxK-kQZzj4-69" value="" style="edgeStyle=orthogonalEdgeStyle;rounded=0;orthogonalLoop=1;jettySize=auto;html=1;strokeColor=#FF0000;" parent="1" source="HtLjNqq3REYxK-kQZzj4-22" target="HtLjNqq3REYxK-kQZzj4-68" edge="1">
          <mxGeometry relative="1" as="geometry">
            <Array as="points">
              <mxPoint x="880" y="1120" />
              <mxPoint x="1320" y="1120" />
            </Array>
          </mxGeometry>
        </mxCell>
        <mxCell id="HtLjNqq3REYxK-kQZzj4-74" value="EMERGENCY_TRIGGERED" style="edgeLabel;html=1;align=center;verticalAlign=middle;resizable=0;points=[];fontColor=#FF0000;rotation=90;" parent="HtLjNqq3REYxK-kQZzj4-69" vertex="1" connectable="0">
          <mxGeometry x="0.922" y="1" relative="1" as="geometry">
            <mxPoint x="11" y="64" as="offset" />
          </mxGeometry>
        </mxCell>
        <mxCell id="HtLjNqq3REYxK-kQZzj4-22" value="UNLOADING" style="whiteSpace=wrap;html=1;strokeWidth=2;" parent="1" vertex="1">
          <mxGeometry x="800" y="1040" width="160" height="40" as="geometry" />
        </mxCell>
        <mxCell id="HtLjNqq3REYxK-kQZzj4-64" style="edgeStyle=orthogonalEdgeStyle;rounded=0;orthogonalLoop=1;jettySize=auto;html=1;entryX=1;entryY=0.25;entryDx=0;entryDy=0;" parent="1" source="HtLjNqq3REYxK-kQZzj4-61" target="HtLjNqq3REYxK-kQZzj4-3" edge="1">
          <mxGeometry relative="1" as="geometry">
            <Array as="points">
              <mxPoint x="1080" y="250" />
            </Array>
          </mxGeometry>
        </mxCell>
        <mxCell id="HtLjNqq3REYxK-kQZzj4-66" value="ARRIVED_AT_STANDBY" style="edgeLabel;html=1;align=center;verticalAlign=middle;resizable=0;points=[];rotation=90;" parent="HtLjNqq3REYxK-kQZzj4-64" vertex="1" connectable="0">
          <mxGeometry x="-0.6713" y="2" relative="1" as="geometry">
            <mxPoint x="-8" y="26" as="offset" />
          </mxGeometry>
        </mxCell>
        <mxCell id="rzwuGuBaJtgLzUKX0fj3-1" style="edgeStyle=orthogonalEdgeStyle;rounded=0;orthogonalLoop=1;jettySize=auto;html=1;entryX=0.5;entryY=1;entryDx=0;entryDy=0;strokeColor=#FF0000;" edge="1" parent="1" source="HtLjNqq3REYxK-kQZzj4-61" target="HtLjNqq3REYxK-kQZzj4-68">
          <mxGeometry relative="1" as="geometry">
            <Array as="points">
              <mxPoint x="1200" y="660" />
              <mxPoint x="1200" y="760" />
              <mxPoint x="1320" y="760" />
            </Array>
          </mxGeometry>
        </mxCell>
        <mxCell id="HtLjNqq3REYxK-kQZzj4-61" value="RETURNING" style="whiteSpace=wrap;html=1;strokeWidth=2;" parent="1" vertex="1">
          <mxGeometry x="1000" y="640" width="160" height="40" as="geometry" />
        </mxCell>
        <mxCell id="HtLjNqq3REYxK-kQZzj4-73" style="edgeStyle=orthogonalEdgeStyle;rounded=0;orthogonalLoop=1;jettySize=auto;html=1;entryX=1;entryY=0.5;entryDx=0;entryDy=0;strokeColor=#FF0000;" parent="1" source="HtLjNqq3REYxK-kQZzj4-68" target="HtLjNqq3REYxK-kQZzj4-3" edge="1">
          <mxGeometry relative="1" as="geometry">
            <Array as="points">
              <mxPoint x="1320" y="260" />
            </Array>
          </mxGeometry>
        </mxCell>
        <mxCell id="HtLjNqq3REYxK-kQZzj4-75" value="RESET" style="edgeLabel;html=1;align=center;verticalAlign=middle;resizable=0;points=[];rotation=90;fontColor=#FF0000;" parent="HtLjNqq3REYxK-kQZzj4-73" vertex="1" connectable="0">
          <mxGeometry x="-0.7407" y="-1" relative="1" as="geometry">
            <mxPoint x="9" y="56" as="offset" />
          </mxGeometry>
        </mxCell>
        <mxCell id="HtLjNqq3REYxK-kQZzj4-68" value="EMERGENCY" style="whiteSpace=wrap;html=1;strokeWidth=2;fillColor=#f8cecc;strokeColor=#b85450;" parent="1" vertex="1">
          <mxGeometry x="1240" y="640" width="160" height="40" as="geometry" />
        </mxCell>
      </root>
    </mxGraphModel>
  </diagram>
</mxfile>
